<svg width="47" height="43" viewBox="0 0 47 43" fill="none" xmlns="http://www.w3.org/2000/svg">
<path d="M40.1293 0.301758H6.82289C3.34057 0.301758 0.507324 3.13444 0.507324 6.61732V27.0001C0.507324 30.4752 3.32823 33.3034 6.80046 33.3157V42.5652L20.093 33.3157H40.1293C43.6116 33.3157 46.4448 30.4824 46.4448 27.0001V6.61732C46.4448 3.13444 43.6116 0.301758 40.1293 0.301758ZM43.7532 27.0001C43.7532 28.9981 42.1275 30.624 40.1293 30.624H19.2485L9.49211 37.4132V30.624H6.82289C4.82462 30.624 3.19897 28.9981 3.19897 27.0001V6.61732C3.19897 4.61877 4.82462 2.99341 6.82289 2.99341H40.1293C42.1275 2.99341 43.7532 4.61877 43.7532 6.61732V27.0001Z" fill="#1A1A1A"/>
</svg>
