<svg width="51" height="45" viewBox="0 0 51 45" fill="none" xmlns="http://www.w3.org/2000/svg">
<path d="M47.4632 0H3.0494C1.36798 0 0 1.36798 0 3.0494V33.714C0 35.3954 1.36798 36.7634 3.0494 36.7634H18.2683V38.9822C18.2683 41.0162 16.6134 42.6711 14.5794 42.6711H11.2253C10.5823 42.6711 10.0609 43.1924 10.0609 43.8355C10.0609 44.4787 10.5823 45 11.2253 45H39.287C39.9301 45 40.4515 44.4787 40.4515 43.8355C40.4515 43.1924 39.9301 42.6711 39.287 42.6711H35.9329C33.8989 42.6711 32.244 41.0162 32.244 38.9822V36.7635H47.4629C49.1443 36.7635 50.5124 35.3955 50.5124 33.7141V3.0494C50.5126 1.36798 49.1446 0 47.4632 0ZM19.329 42.6713C20.1228 41.6516 20.5974 40.3718 20.5974 38.9824V36.7636H29.9153V38.9824C29.9153 40.3718 30.3899 41.6517 31.1837 42.6713H19.329ZM48.1837 33.7141C48.1837 34.1114 47.8605 34.4347 47.4631 34.4347H3.0494C2.65211 34.4347 2.32881 34.1115 2.32881 33.7141V27.5941H48.1837V33.7141ZM48.1837 25.2651H2.32891V3.0494C2.32891 2.65211 2.65211 2.32881 3.0495 2.32881H47.4631C47.8604 2.32881 48.1838 2.65201 48.1838 3.0494V25.2651H48.1837Z" fill="black"/>
</svg>
