<svg width="21" height="21" viewBox="0 0 21 21" fill="none" xmlns="http://www.w3.org/2000/svg">
<path d="M19.0312 5.2034L13.9533 0.125549C13.8728 0.0451581 13.7639 0 13.6502 0H3.92636C2.77784 0 1.84351 0.934416 1.84351 2.08293V18.9171C1.84351 20.0656 2.77788 21 3.9264 21H17.0738C18.2223 21 19.1567 20.0656 19.1567 18.9171V5.50646C19.1567 5.39281 19.1115 5.28379 19.0312 5.2034ZM14.0789 1.46339L17.6935 5.07793H15.3046C14.9772 5.07793 14.6693 4.95041 14.4378 4.71892C14.2064 4.48747 14.0789 4.17965 14.0789 3.85222V1.46339ZM18.2995 18.9171C18.2995 19.593 17.7497 20.1428 17.0738 20.1428H3.92636C3.25046 20.1428 2.70061 19.593 2.70061 18.9171V2.08293C2.70065 1.40704 3.2505 0.857143 3.92636 0.857143H13.2218V3.85214C13.2217 4.40851 13.4383 4.93159 13.8317 5.32497C14.2251 5.71839 14.7482 5.93503 15.3046 5.93503H18.2995V18.9171H18.2995Z" fill="black"/>
<path d="M11.283 14.417H11.0912C10.8545 14.417 10.6626 14.6089 10.6626 14.8456C10.6626 15.0823 10.8545 15.2741 11.0912 15.2741H11.283C11.5197 15.2741 11.7116 15.0823 11.7116 14.8456C11.7116 14.6089 11.5197 14.417 11.283 14.417Z" fill="black"/>
<path d="M9.7046 14.417H5.54185C5.30519 14.417 5.11328 14.6089 5.11328 14.8456C5.11328 15.0823 5.30519 15.2741 5.54185 15.2741H9.7046C9.94126 15.2741 10.1332 15.0823 10.1332 14.8456C10.1332 14.6089 9.9413 14.417 9.7046 14.417Z" fill="black"/>
<path d="M15.4582 12.458H5.5421C5.30544 12.458 5.11353 12.6499 5.11353 12.8866C5.11353 13.1233 5.30544 13.3152 5.5421 13.3152H15.4582C15.6948 13.3152 15.8867 13.1233 15.8867 12.8866C15.8867 12.6499 15.6948 12.458 15.4582 12.458Z" fill="black"/>
<path d="M15.4582 10.5H5.5421C5.30544 10.5 5.11353 10.6919 5.11353 10.9286C5.11353 11.1653 5.30544 11.3571 5.5421 11.3571H15.4582C15.6948 11.3571 15.8867 11.1653 15.8867 10.9286C15.8867 10.6919 15.6948 10.5 15.4582 10.5Z" fill="black"/>
<path d="M15.4582 8.54199H5.5421C5.30544 8.54199 5.11353 8.73386 5.11353 8.97056C5.11353 9.20726 5.30544 9.39914 5.5421 9.39914H15.4582C15.6948 9.39914 15.8867 9.20726 15.8867 8.97056C15.8867 8.73386 15.6948 8.54199 15.4582 8.54199Z" fill="black"/>
</svg>
