<svg width="67" height="75" viewBox="0 0 67 75" fill="none" xmlns="http://www.w3.org/2000/svg">
<path d="M8.68652 68.2512C8.68652 68.5803 8.81726 68.8959 9.04998 69.1287C9.28271 69.3614 9.59834 69.4921 9.92746 69.4921H37.228C37.5571 69.4921 37.8728 69.3614 38.1055 69.1287C38.3382 68.8959 38.4689 68.5803 38.4689 68.2512C38.4689 67.9221 38.3382 67.6064 38.1055 67.3737C37.8728 67.141 37.5571 67.0103 37.228 67.0103H9.92746C9.59834 67.0103 9.28271 67.141 9.04998 67.3737C8.81726 67.6064 8.68652 67.9221 8.68652 68.2512Z" fill="#B04AFF"/>
<path d="M59.4035 26.5225C59.6362 26.7551 59.9518 26.8858 60.2808 26.8858C60.6099 26.8858 60.9255 26.7551 61.1582 26.5225L65.5461 22.1345C66.477 21.2036 67 19.9411 67 18.6246C67 17.3081 66.477 16.0455 65.5461 15.1146C64.6152 14.1837 63.3526 13.6607 62.0361 13.6607C60.7196 13.6607 59.4571 14.1837 58.5262 15.1146L54.1382 19.5025C53.9056 19.7352 53.7749 20.0508 53.7749 20.3799C53.7749 20.7089 53.9056 21.0245 54.1382 21.2572L47.1555 28.2399V6.20467C47.1535 4.55969 46.4992 2.98266 45.336 1.81948C44.1728 0.656308 42.5958 0.00197043 40.9508 0H6.20467C4.55969 0.00197043 2.98266 0.656308 1.81948 1.81948C0.656307 2.98266 0.00197043 4.55969 0 6.20467V68.2514C0.00197043 69.8963 0.656307 71.4734 1.81948 72.6366C2.98266 73.7997 4.55969 74.4541 6.20467 74.456H40.9508C42.5958 74.4541 44.1728 73.7997 45.336 72.6366C46.4992 71.4734 47.1535 69.8963 47.1555 68.2514V38.7693L56.7715 29.1545L58.5262 30.9092L52.3835 37.0518C52.265 37.1663 52.1705 37.3032 52.1054 37.4546C52.0404 37.606 52.0062 37.7688 52.0047 37.9336C52.0033 38.0984 52.0347 38.2618 52.0971 38.4143C52.1595 38.5668 52.2516 38.7053 52.3681 38.8219C52.4847 38.9384 52.6232 39.0305 52.7757 39.0929C52.9282 39.1553 53.0916 39.1867 53.2564 39.1853C53.4212 39.1838 53.584 39.1496 53.7354 39.0846C53.8868 39.0195 54.0237 38.925 54.1382 38.8065L61.1582 31.7865C61.3908 31.5538 61.5215 31.2382 61.5215 30.9092C61.5215 30.5801 61.3908 30.2646 61.1582 30.0318L58.5262 27.3998L59.4035 26.5225ZM60.2808 16.8693C60.7464 16.4037 61.3778 16.1422 62.0361 16.1422C62.6945 16.1422 63.3259 16.4037 63.7914 16.8693C64.257 17.3348 64.5185 17.9662 64.5185 18.6246C64.5185 19.2829 64.257 19.9143 63.7914 20.3799L60.2808 23.8892L56.7715 20.3799L60.2808 16.8693ZM11.1684 2.48187H35.9871V6.20467C35.9871 6.53379 35.8563 6.84942 35.6236 7.08214C35.3909 7.31486 35.0753 7.4456 34.7461 7.4456H12.4093C12.0802 7.4456 11.7646 7.31486 11.5319 7.08214C11.2991 6.84942 11.1684 6.53379 11.1684 6.20467V2.48187ZM44.6736 68.2514C44.6736 69.2387 44.2814 70.1856 43.5832 70.8838C42.8851 71.5819 41.9382 71.9742 40.9508 71.9742H6.20467C5.21732 71.9742 4.27041 71.5819 3.57225 70.8838C2.87409 70.1856 2.48187 69.2387 2.48187 68.2514V6.20467C2.48187 5.21732 2.87409 4.27041 3.57225 3.57225C4.27041 2.87409 5.21732 2.48187 6.20467 2.48187H8.68654V6.20467C8.68654 7.19202 9.07876 8.13893 9.77692 8.83709C10.4751 9.53525 11.422 9.92747 12.4093 9.92747H34.7461C35.7335 9.92747 36.6804 9.53525 37.3786 8.83709C38.0767 8.13893 38.4689 7.19202 38.4689 6.20467V2.48187H40.9508C41.9382 2.48187 42.8851 2.87409 43.5832 3.57225C44.2814 4.27041 44.6736 5.21732 44.6736 6.20467V30.723L28.6929 46.7038C28.5979 46.7978 28.5191 46.9068 28.4596 47.0264L24.949 54.0464C24.8299 54.2796 24.7877 54.5445 24.8283 54.8031C24.869 55.0618 24.9903 55.3009 25.1751 55.4864C25.3599 55.6719 25.5986 55.7942 25.8571 55.8358C26.1156 55.8773 26.3807 55.8361 26.6143 55.7179L33.6293 52.2011C33.7489 52.1416 33.8579 52.0628 33.9519 51.9678L44.6736 41.2511V68.2514ZM55.8954 26.5212L32.3437 50.0717L28.8343 51.8264L30.589 48.317L55.8941 23.0119L57.6488 24.7666L55.8954 26.5212Z" fill="#B04AFF"/>
<path d="M8.68652 54.6011H11.1684V57.0829H8.68652V54.6011Z" fill="#B04AFF"/>
<path d="M13.6504 54.6011H23.5779V57.0829H13.6504V54.6011Z" fill="#B04AFF"/>
<path d="M8.68652 49.6372H23.5777V52.1191H8.68652V49.6372Z" fill="#B04AFF"/>
<path d="M29.7824 17.373H7.44556V29.7824H29.7824V17.373ZM27.3005 27.3005H9.92742V19.8549H27.3005V27.3005Z" fill="#B04AFF"/>
<path d="M32.2642 17.373H39.7098V19.8549H32.2642V17.373Z" fill="#B04AFF"/>
<path d="M32.2642 22.3369H39.7098V24.8188H32.2642V22.3369Z" fill="#B04AFF"/>
<path d="M32.2642 27.3008H39.7098V29.7826H32.2642V27.3008Z" fill="#B04AFF"/>
<path d="M7.44556 32.2642H9.92742V34.746H7.44556V32.2642Z" fill="#B04AFF"/>
<path d="M12.4094 32.2642H29.7825V34.746H12.4094V32.2642Z" fill="#B04AFF"/>
<path d="M14.8912 37.228H7.44556V44.6736H14.8912V37.228ZM12.4093 42.1918H9.92742V39.7099H12.4093V42.1918Z" fill="#B04AFF"/>
<path d="M24.8186 37.228H17.373V44.6736H24.8186V37.228ZM22.3368 42.1918H19.8549V39.7099H22.3368V42.1918Z" fill="#B04AFF"/>
</svg>
