<svg width="71" height="71" viewBox="0 0 71 71" fill="none" xmlns="http://www.w3.org/2000/svg">
<path d="M65.803 6.45458H12.909V6.91764L12.2472 4.64862C11.4498 1.9114 8.90183 0 6.05114 0H1.61369C0.72175 0 0 0.721748 0 1.61368C0 2.50562 0.72175 3.22737 1.61369 3.22737H6.05114C7.47724 3.22737 8.75056 4.18238 9.14917 5.55175L19.1935 39.9879L14.0468 46.4204C13.3125 47.3391 12.909 48.4911 12.909 49.6666C12.909 52.533 15.2396 54.8636 18.1061 54.8636H62.9319C63.8238 54.8636 64.5456 54.1418 64.5456 53.2499C64.5456 52.3579 63.8238 51.6362 62.9319 51.6362H18.1061C17.0203 51.6362 16.1363 50.7521 16.1363 49.6664C16.1363 49.2204 16.2891 48.7823 16.568 48.4358L21.7537 41.9544H53.4043C55.8926 41.9544 58.1854 40.4999 59.246 38.2481L70.5068 14.3194C70.8298 13.6308 71 12.8665 71 12.1084V11.6514C71 8.78517 68.6694 6.45458 65.803 6.45458ZM67.7728 12.1086C67.7728 12.3969 67.7082 12.6869 67.5852 12.947L56.326 36.874C55.795 37.9992 54.6494 38.7272 53.4043 38.7272H22.1876L13.7154 9.6818H65.803C66.8887 9.6818 67.7728 10.5659 67.7728 11.6516V12.1086Z" fill="#B04AFF"/>
<path d="M19.3636 58.0908C15.8039 58.0908 12.909 60.9855 12.909 64.5454C12.909 68.1053 15.8038 71 19.3636 71C22.9235 71 25.8183 68.1053 25.8183 64.5454C25.8183 60.9855 22.9234 58.0908 19.3636 58.0908ZM19.3636 67.7726C17.5846 67.7726 16.1364 66.3244 16.1364 64.5454C16.1364 62.7664 17.5846 61.3182 19.3636 61.3182C21.1427 61.3182 22.5909 62.7664 22.5909 64.5454C22.5909 66.3244 21.1427 67.7726 19.3636 67.7726Z" fill="#B04AFF"/>
<path d="M58.091 58.0908C54.5312 58.0908 51.6363 60.9855 51.6363 64.5454C51.6363 68.1053 54.5311 71 58.091 71C61.6508 71 64.5456 68.1053 64.5456 64.5454C64.5456 60.9855 61.6507 58.0908 58.091 58.0908ZM58.091 67.7726C56.3119 67.7726 54.8637 66.3244 54.8637 64.5454C54.8637 62.7664 56.3119 61.3182 58.091 61.3182C59.87 61.3182 61.3182 62.7664 61.3182 64.5454C61.3182 66.3244 59.87 67.7726 58.091 67.7726Z" fill="#B04AFF"/>
</svg>
