<svg width="92" height="118" viewBox="0 0 92 118" fill="none" xmlns="http://www.w3.org/2000/svg">
<path d="M92 45.0787C92 69.9749 46 118 46 118C46 118 0 69.9749 0 45.0787C0 20.1824 20.5949 0 46 0C71.4051 0 92 20.1824 92 45.0787Z" fill="#8F00FF"/>
<path d="M45.704 60.56C48.0933 60.56 49.9067 60.432 51.144 60.176V51.6C50.7173 51.472 50.0987 51.344 49.288 51.216C48.4773 51.088 47.5813 51.024 46.6 51.024C45.7467 51.024 44.872 51.088 43.976 51.216C43.1227 51.344 42.3333 51.5787 41.608 51.92C40.9253 52.2613 40.3707 52.752 39.944 53.392C39.5173 53.9893 39.304 54.7573 39.304 55.696C39.304 57.5307 39.88 58.8107 41.032 59.536C42.184 60.2187 43.7413 60.56 45.704 60.56ZM45.064 31.696C47.624 31.696 49.7787 32.016 51.528 32.656C53.2773 33.296 54.664 34.192 55.688 35.344C56.7547 36.496 57.5013 37.904 57.928 39.568C58.3973 41.1893 58.632 42.9813 58.632 44.944V65.232C57.4373 65.488 55.624 65.7867 53.192 66.128C50.8027 66.512 48.0933 66.704 45.064 66.704C43.0587 66.704 41.224 66.512 39.56 66.128C37.896 65.744 36.4667 65.1253 35.272 64.272C34.12 63.4187 33.2027 62.3093 32.52 60.944C31.88 59.5787 31.56 57.8933 31.56 55.888C31.56 53.968 31.9227 52.3467 32.648 51.024C33.416 49.7013 34.44 48.6347 35.72 47.824C37 46.9707 38.472 46.3733 40.136 46.032C41.8427 45.648 43.6133 45.456 45.448 45.456C46.3013 45.456 47.1973 45.52 48.136 45.648C49.0747 45.7333 50.0773 45.904 51.144 46.16V44.88C51.144 43.984 51.0373 43.1307 50.824 42.32C50.6107 41.5093 50.2267 40.8053 49.672 40.208C49.16 39.568 48.456 39.0773 47.56 38.736C46.7067 38.3947 45.6187 38.224 44.296 38.224C42.504 38.224 40.8613 38.352 39.368 38.608C37.8747 38.864 36.6587 39.1627 35.72 39.504L34.76 33.232C35.7413 32.8907 37.1707 32.5493 39.048 32.208C40.9253 31.8667 42.9307 31.696 45.064 31.696Z" fill="white"/>
</svg>
