<svg width="38" height="38" viewBox="0 0 38 38" fill="none" xmlns="http://www.w3.org/2000/svg">
<g clip-path="url(#clip0)">
<path d="M5.93758 8.70833C5.06358 8.70833 4.35425 7.999 4.35425 7.125V1.58333C4.35425 0.709333 5.06358 0 5.93758 0C6.81158 0 7.52091 0.709333 7.52091 1.58333V7.125C7.52091 7.999 6.81158 8.70833 5.93758 8.70833Z" fill="white"/>
<path d="M13.4583 8.70833C12.5843 8.70833 11.875 7.999 11.875 7.125V1.58333C11.875 0.709333 12.5843 0 13.4583 0C14.3323 0 15.0417 0.709333 15.0417 1.58333V7.125C15.0417 7.999 14.3323 8.70833 13.4583 8.70833Z" fill="white"/>
<path d="M20.9791 8.70833C20.1051 8.70833 19.3958 7.999 19.3958 7.125V1.58333C19.3958 0.709333 20.1051 0 20.9791 0C21.8531 0 22.5624 0.709333 22.5624 1.58333V7.125C22.5624 7.999 21.8531 8.70833 20.9791 8.70833Z" fill="white"/>
<path d="M22.5625 3.5625H4.35417C1.9475 3.5625 0 5.51 0 7.91667V28.8958C0 31.3025 1.9475 33.25 4.35417 33.25H16.0392L16.3875 31.3025C16.5458 30.4158 16.9575 29.6242 17.5908 28.975L26.9167 19.665V7.91667C26.9167 5.51 24.9692 3.5625 22.5625 3.5625ZM12.6667 11.0833C13.5375 11.0833 14.25 11.7958 14.25 12.6667C14.25 13.5375 13.5375 14.25 12.6667 14.25H6.33333C5.4625 14.25 4.75 13.5375 4.75 12.6667C4.75 11.7958 5.4625 11.0833 6.33333 11.0833H12.6667ZM17.4167 20.5833H6.33333C5.4625 20.5833 4.75 19.8708 4.75 19C4.75 18.1292 5.4625 17.4167 6.33333 17.4167H17.4167C18.2875 17.4167 19 18.1292 19 19C19 19.8708 18.2875 20.5833 17.4167 20.5833Z" fill="white"/>
<path d="M19.8361 38.0005C19.5241 38.0005 19.2201 37.877 18.9969 37.6521C18.723 37.3782 18.5995 36.9887 18.6676 36.6055L19.5067 31.8476C19.5479 31.6085 19.6651 31.3869 19.8361 31.2143L31.5923 19.4596C33.0363 18.0124 34.455 18.4035 35.2308 19.1794L37.1894 21.138C38.2708 22.2178 38.2708 23.9753 37.1894 25.0567L25.4331 36.813C25.2621 36.9855 25.0405 37.1011 24.7998 37.1423L20.0419 37.9815C19.9738 37.9941 19.9041 38.0005 19.8361 38.0005ZM24.594 35.9738H24.6098H24.594Z" fill="white"/>
</g>
<defs>
<clipPath id="clip0">
<rect width="38" height="38" fill="white"/>
</clipPath>
</defs>
</svg>
