<svg width="38" height="38" viewBox="0 0 38 38" fill="none" xmlns="http://www.w3.org/2000/svg">
<g clip-path="url(#clip0)">
<path d="M28.9444 31.9557L22.5386 27.6851C22.2521 27.496 21.8683 27.5582 21.6563 27.8283L19.7911 30.2263C19.1866 31.0141 18.0956 31.2389 17.2289 30.7543L16.8841 30.5649C15.64 29.8862 14.0911 29.0418 11.0165 25.9672C7.94185 22.8926 7.09682 21.3437 6.41875 20.0989L6.22871 19.7541C5.74417 18.8876 5.96903 17.7968 6.75675 17.1926L9.15405 15.3268C9.42441 15.1149 9.48677 14.7309 9.29725 14.4444L5.02735 8.03791C4.83315 7.74721 4.44512 7.65976 4.14498 7.83904L1.4647 9.44624C0.889666 9.78186 0.466744 10.3269 0.284421 10.9673C-0.595868 14.1729 0.144635 19.786 8.6701 28.3122C17.1956 36.8384 22.8074 37.5802 26.0157 36.6992C26.6562 36.5166 27.2012 36.0935 27.5367 35.5182L29.1432 32.8379C29.323 32.538 29.2354 32.1497 28.9444 31.9557Z" fill="white"/>
<path d="M37.8919 1.12569C37.8217 1.05546 37.7261 1.01649 37.6267 1.0176H9.18803C9.0887 1.01649 8.99309 1.05546 8.92286 1.12569C8.85263 1.19592 8.81366 1.29153 8.81477 1.39086V11.2718L10.4274 13.6908C11.009 14.5696 10.8179 15.7477 9.98829 16.3976L7.59307 18.2634C7.33666 18.4579 7.26213 18.8113 7.41795 19.0928L7.61341 19.4492C8.23662 20.6344 8.9968 21.7425 9.87835 22.7505H37.6267C37.8304 22.752 37.997 22.589 38.0001 22.3854V1.39086C38.0012 1.29153 37.9622 1.19592 37.8919 1.12569ZM18.6081 13.4695V13.4661L11.6553 20.9151C11.3996 21.1893 10.9701 21.2043 10.6959 20.9487C10.4217 20.6931 10.4067 20.2635 10.6623 19.9894L17.6151 12.5438C17.8708 12.2695 18.3003 12.2545 18.5745 12.5101C18.8487 12.7658 18.8638 13.1953 18.6081 13.4695ZM23.4074 12.9347C22.9182 12.9369 22.4417 12.7797 22.0499 12.4867L10.7057 3.88452C10.407 3.65698 10.3492 3.23035 10.5768 2.93155C10.8043 2.63283 11.2309 2.57507 11.5297 2.8026L22.8693 11.4048C23.1902 11.638 23.6248 11.638 23.9457 11.4048L35.2885 2.8026C35.5873 2.57603 36.0132 2.63453 36.2398 2.93326C36.4664 3.23198 36.4079 3.65787 36.1091 3.88452L24.7649 12.4867C24.3731 12.7797 23.8966 12.9369 23.4074 12.9347ZM36.1621 20.9484C36.0305 21.0714 35.8553 21.1369 35.6753 21.1307C35.4953 21.1245 35.3251 21.047 35.2024 20.9152L28.2502 13.4661C28.0139 13.1893 28.0381 12.7754 28.3049 12.528C28.5717 12.2805 28.9861 12.2875 29.2445 12.5438L36.1953 19.9894C36.4508 20.2634 36.436 20.6927 36.1621 20.9484Z" fill="white"/>
</g>
<defs>
<clipPath id="clip0">
<rect width="38" height="38" fill="white"/>
</clipPath>
</defs>
</svg>
