<svg width="38" height="38" viewBox="0 0 38 38" fill="none" xmlns="http://www.w3.org/2000/svg">
<g clip-path="url(#clip0)">
<path d="M5.54719 24.3498C5.33208 24.7788 5.41586 25.2975 5.75477 25.6367L6.02701 25.9089C6.81355 24.9769 7.73027 23.9653 8.8421 22.8538C8.92067 22.7752 9.00156 22.7372 9.08042 22.6648L7.32903 20.9131C6.31084 22.7546 5.71709 24.0129 5.54719 24.3498Z" fill="white"/>
<path d="M15.1398 29.1514C14.0253 30.2658 13.0164 31.1843 12.0895 31.9714L12.4583 32.3402C12.8004 32.6823 13.324 32.7646 13.7545 32.5431C14.3312 32.246 15.238 31.8192 17.1631 30.7471L15.3291 28.9131C15.2566 28.9922 15.2186 29.0728 15.1398 29.1514Z" fill="white"/>
<path d="M14.5463 23.4476C13.7418 22.6431 11.4793 23.3644 10.4165 24.4269C6.86093 27.9825 5.25508 30.5033 4.53406 31.9917C4.32735 32.4182 4.41345 32.9288 4.7486 33.2639C5.08432 33.5999 5.59573 33.6852 6.02249 33.4784C7.47758 32.7719 9.96768 31.1736 13.5656 27.576C14.7342 26.4068 15.3109 24.2124 14.5472 23.4485L14.5463 23.4476Z" fill="white"/>
<path d="M3.47501 14.8227L0.32622 17.9715C-0.0297983 18.3276 -0.102857 18.8787 0.14937 19.3153C0.39551 19.7461 0.910982 19.9656 1.40152 19.8343C3.10333 19.3779 4.60076 19.1851 5.60909 19.4437C7.0436 16.8933 8.58508 14.5456 10.2176 12.4129C9.27335 11.8076 6.15297 12.1448 3.47501 14.8227Z" fill="white"/>
<path d="M18.8437 37.8802C19.2725 38.097 19.7917 38.0132 20.1312 37.6734L23.2803 34.5247C25.7182 32.0862 26.1473 28.94 25.5941 27.9424C23.2156 29.7349 20.8061 31.2486 18.5581 32.5158C18.7132 33.3917 18.61 34.2414 18.2433 36.7231C18.1716 37.2035 18.4198 37.6682 18.8437 37.8802Z" fill="white"/>
<path d="M22.1024 11.1672C20.8004 12.4695 20.8004 14.5879 22.1024 15.8902C23.4047 17.1925 25.5234 17.1925 26.8257 15.8902C28.128 14.5879 28.128 12.4695 26.8257 11.1672C25.5234 9.86485 23.4047 9.86485 22.1024 11.1672Z" fill="white"/>
<path d="M37.9345 1.08593C37.8945 0.53538 37.4562 0.100215 36.9074 0.0590467C34.1731 -0.146794 31.4497 0.189509 28.7801 1.00592C28.981 2.83993 29.9296 4.8247 31.5491 6.44418C33.188 8.08279 35.2267 9.03111 37.0935 9.20854C37.8125 6.68887 38.1534 3.99032 37.9345 1.08593Z" fill="white"/>
<path d="M29.9748 8.0191C28.1222 6.16653 26.991 3.94461 26.628 1.78125C19.9428 4.52299 13.5432 10.5104 8.48615 18.9214L10.9986 21.4339C12.7152 20.7369 14.7991 20.5528 16.1208 21.8742C17.4443 23.198 17.2567 25.2811 16.56 26.9953L19.1551 29.5904C25.6266 25.6901 33.161 19.5453 36.3649 11.37C34.1487 11.0351 31.8575 9.90182 29.9748 8.0191ZM28.4 17.4655C26.2299 19.6355 22.6985 19.6355 20.5281 17.4655C18.3578 15.2952 18.3578 11.7634 20.5281 9.59335C22.6985 7.42332 26.2299 7.42332 28.4 9.59335C30.5703 11.7637 30.5703 15.2952 28.4 17.4655Z" fill="white"/>
</g>
<defs>
<clipPath id="clip0">
<rect width="38" height="38" fill="white"/>
</clipPath>
</defs>
</svg>
