<svg width="46" height="46" viewBox="0 0 46 46" fill="none" xmlns="http://www.w3.org/2000/svg">
<path d="M40.8487 21.2031H35.2423C32.402 21.2031 30.091 23.5141 30.091 26.3544V40.8487C30.091 43.689 32.402 46 35.2423 46H40.8487C43.689 46 46 43.689 46 40.8487V26.3544C46 23.5141 43.689 21.2031 40.8487 21.2031ZM42.4062 40.8487C42.4062 41.7075 41.7075 42.4062 40.8487 42.4062H35.2423C34.3835 42.4062 33.6847 41.7075 33.6847 40.8487V26.3544C33.6847 25.4956 34.3835 24.7969 35.2423 24.7969H40.8487C41.7075 24.7969 42.4062 25.4956 42.4062 26.3544V40.8487ZM15.909 19.6456V5.15128C15.909 2.31102 13.598 0 10.7577 0H5.15128C2.31102 0 0 2.31102 0 5.15128V19.6456C0 22.4859 2.31102 24.7969 5.15128 24.7969H10.7577C13.598 24.7969 15.909 22.4859 15.909 19.6456ZM3.59375 19.6456V5.15128C3.59375 4.2925 4.2925 3.59375 5.15128 3.59375H10.7577C11.6165 3.59375 12.3153 4.2925 12.3153 5.15128V19.6456C12.3153 20.5044 11.6165 21.2031 10.7577 21.2031H5.15128C4.2925 21.2031 3.59375 20.5044 3.59375 19.6456ZM30.5227 3.59375C27.3655 3.59375 24.7969 6.16237 24.7969 9.31953V36.6805C24.7969 41.8191 20.616 46 15.4773 46C10.3383 46 6.15746 41.8191 6.15746 36.6805V30.0678C6.15746 29.0753 6.96219 28.271 7.95433 28.271C8.94682 28.271 9.75121 29.0753 9.75121 30.0678V36.6805C9.75121 39.8376 12.3202 42.4062 15.4773 42.4062C18.6345 42.4062 21.2031 39.8376 21.2031 36.6805V9.31953C21.2031 4.18089 25.384 0 30.5227 0C35.6617 0 39.8425 4.18089 39.8425 9.31953V15.9322C39.8425 16.9247 39.0378 17.729 38.0457 17.729C37.0532 17.729 36.2488 16.9247 36.2488 15.9322V9.31953C36.2488 6.16237 33.6802 3.59375 30.5227 3.59375Z" fill="white"/>
</svg>
