<svg width="96" height="96" viewBox="0 0 96 96" fill="none" xmlns="http://www.w3.org/2000/svg">
<path d="M87.4286 39.4286H58.2857C57.339 39.4286 56.5714 38.661 56.5714 37.7143V8.57143C56.5714 3.83789 52.7335 0 48 0C43.2665 0 39.4286 3.83789 39.4286 8.57143V37.7143C39.4286 38.661 38.661 39.4286 37.7143 39.4286H8.57143C3.83789 39.4286 0 43.2665 0 48C0 52.7335 3.83789 56.5714 8.57143 56.5714H37.7143C38.661 56.5714 39.4286 57.339 39.4286 58.2857V87.4286C39.4286 92.1621 43.2665 96 48 96C52.7335 96 56.5714 92.1621 56.5714 87.4286V58.2857C56.5714 57.339 57.339 56.5714 58.2857 56.5714H87.4286C92.1621 56.5714 96 52.7335 96 48C96 43.2665 92.1621 39.4286 87.4286 39.4286Z" fill="#E2E2E2"/>
</svg>
