<svg width="43" height="43" viewBox="0 0 43 43" fill="none" xmlns="http://www.w3.org/2000/svg">
<path d="M42.7025 0.297486C42.503 0.0981191 42.2308 -0.00994315 41.9479 0.00072089C41.7182 0.00894744 36.2506 0.228728 29.7511 2.52597C24.543 4.36485 20.202 6.99765 16.8485 10.3512C16.097 11.1027 15.3658 11.8996 14.6661 12.7274C11.3503 10.7756 8.69321 11.3876 7.01347 12.2865C3.14588 14.3564 0.751953 19.9764 0.751953 23.9962C0.752258 24.407 0.999765 24.7774 1.3792 24.9345C1.50483 24.9866 1.63687 25.0119 1.76768 25.0119C2.03204 25.0119 2.29174 24.9086 2.48603 24.7144C4.52571 22.6747 7.0415 22.8023 7.86335 22.9103L8.21902 23.266C7.51905 24.9316 6.95518 26.5879 6.54162 28.1988C6.39232 28.7818 6.44269 29.3986 6.66461 29.9629C5.68677 30.4136 4.74335 31.0752 3.92192 31.8967C1.3076 34.5111 0.776735 40.8825 0.755407 41.1525C0.732047 41.4487 0.8395 41.7404 1.04963 41.9505C1.24087 42.1417 1.49955 42.248 1.76768 42.248C1.79429 42.248 1.821 42.247 1.84771 42.2449C2.11766 42.2236 8.48928 41.6928 11.1036 39.0784C11.9247 38.2573 12.5863 37.314 13.0369 36.3364C13.6343 36.5713 14.2492 36.6002 14.8021 36.4585C16.4123 36.0451 18.0683 35.4814 19.7342 34.7813L20.0898 35.137C20.1978 35.959 20.3253 38.4748 18.2858 40.5142C17.9954 40.8047 17.9085 41.2415 18.0657 41.621C18.2228 42.0005 18.5931 42.2479 19.0039 42.2479C23.0238 42.2479 28.6437 39.854 30.7136 35.9864C31.6125 34.3068 32.2245 31.6498 30.2727 28.3339C31.1001 27.6345 31.8971 26.9033 32.6488 26.1515C36.0024 22.7979 38.6351 18.4568 40.474 13.2491C42.7713 6.74933 42.991 1.28162 42.9992 1.05209C43.0094 0.770259 42.9018 0.496954 42.7025 0.297486ZM3.02268 21.8117C3.65359 18.7585 5.48608 15.408 7.97232 14.0774C9.63378 13.1883 11.4498 13.2754 13.3807 14.3324C11.7357 16.4959 10.3056 18.8267 9.11358 21.2881C9.09845 21.2787 8.91563 21.0489 8.57601 20.9723C8.43636 20.9407 5.74912 20.3627 3.02268 21.8117ZM9.6673 37.6421C8.27082 39.0385 4.99492 39.7751 2.92437 40.0758C3.2252 38.0051 3.96183 34.7293 5.35821 33.333C6.14024 32.5509 7.04699 31.958 7.95841 31.6241L11.3762 35.0419C11.0422 35.9533 10.4494 36.86 9.6673 37.6421ZM14.2975 34.4909C14.0036 34.5661 13.6632 34.4556 13.4101 34.2029C12.0962 32.889 11.5822 32.375 11.4209 32.2139C11.1251 31.9181 10.3999 31.1928 8.79792 29.5908C8.54463 29.337 8.43413 28.9967 8.50918 28.7032C8.83449 27.4364 9.25993 26.1366 9.77729 24.8243L18.176 33.223C16.8635 33.7404 15.5639 34.1658 14.2975 34.4909ZM28.9229 35.0279C27.5922 37.5141 24.2419 39.3467 21.1887 39.9775C22.1622 38.1456 22.3768 35.8136 22.0211 34.3996C21.9386 34.0711 21.7243 33.906 21.7123 33.8866C24.1734 32.6945 26.5042 31.2644 28.6679 29.6194C29.7248 31.5505 29.8119 33.3668 28.9229 35.0279ZM31.2127 24.7152C30.2976 25.6303 29.3121 26.5144 28.2837 27.3428C25.8114 29.3334 23.0904 31.0196 20.1873 32.3618L10.6384 22.8131C11.9807 19.9099 13.6668 17.1888 15.6572 14.7169C16.4864 13.6878 17.3704 12.7022 18.2852 11.7875C21.294 8.77865 25.1771 6.38401 29.8299 4.6603L38.34 13.1704C36.6165 17.8231 34.2218 21.7062 31.2127 24.7152ZM39.0707 11.0284L31.9719 3.92956C35.8395 2.72828 39.2042 2.27846 40.8836 2.11677C40.7218 3.79651 40.2719 7.16117 39.0707 11.0284Z" fill="#1A1A1A"/>
</svg>
