<svg width="62" height="90" viewBox="0 0 62 90" fill="none" xmlns="http://www.w3.org/2000/svg">
<path d="M62 65.3158V3.28079C62 1.47217 60.5443 0 58.7553 0H8.49642C3.81165 0 0 3.85483 0 8.59268V74.1158C0 78.8537 3.81097 82.7078 8.49642 82.7078H8.51544V88.6796C8.51544 89.1767 8.79177 89.632 9.22969 89.8572C9.6683 90.0817 10.1952 90.0385 10.5917 89.7453L14.1704 87.0982L17.7499 89.7453C17.978 89.9142 18.2482 90 18.5205 90C18.7221 90 18.9245 89.9526 19.1112 89.8572C19.5498 89.632 19.8261 89.1767 19.8261 88.6796V82.7078H58.7553C60.5443 82.7078 61.9993 81.2363 61.9993 79.427V71.7126C61.9993 70.9834 61.4147 70.3922 60.6937 70.3922C59.9726 70.3922 59.3881 70.9834 59.3881 71.7126V79.427C59.3881 79.7807 59.1043 80.0677 58.7546 80.0677H19.8261V76.7622H53.5138C54.2348 76.7622 54.8194 76.171 54.8194 75.4424C54.8194 74.7132 54.2348 74.122 53.5138 74.122H6.33599C5.61495 74.122 5.03037 74.7132 5.03037 75.4424C5.03037 76.171 5.61495 76.7622 6.33599 76.7622H8.51544V80.0677H8.49642C5.25103 80.0677 2.61058 77.3973 2.61058 74.1158V72.588C2.61058 69.3059 5.25103 66.6362 8.49642 66.6362H60.6944C61.4154 66.6362 62 66.045 62 65.3158ZM17.2155 76.7622V86.0786L14.9417 84.397C14.7122 84.2274 14.4413 84.1422 14.1711 84.1422C13.9002 84.1422 13.6293 84.2274 13.3998 84.397L11.126 86.0786V76.7622H17.2155ZM2.61126 66.4V8.59268C2.61126 5.31052 5.25103 2.64015 8.49642 2.64015H58.7553C59.1049 2.64015 59.3887 2.92786 59.3887 3.28079V63.9954H8.49642C6.2131 63.9954 4.1389 64.9127 2.61126 66.4Z" fill="#B04AFF"/>
<path d="M9.99216 68.9777C9.27111 68.9777 8.68653 69.5689 8.68653 70.2981C8.68653 71.0273 9.27111 71.6185 9.99216 71.6185H37.1571C37.8781 71.6185 38.4627 71.0273 38.4627 70.2981C38.4627 69.5689 37.8781 68.9777 37.1571 68.9777H9.99216Z" fill="#B04AFF"/>
<path d="M43.2908 68.9777C42.5697 68.9777 41.9851 69.5689 41.9851 70.2981C41.9851 71.0273 42.5697 71.6185 43.2908 71.6185H53.5138C54.2348 71.6185 54.8194 71.0273 54.8194 70.2981C54.8194 69.5689 54.2348 68.9777 53.5138 68.9777H43.2908Z" fill="#B04AFF"/>
<path d="M17.2943 44.3079H14.9791C14.4746 44.3079 14.3273 44.7693 14.3273 45.2307C14.3273 45.6921 14.4576 46.17 14.9791 46.17H16.2345C16.6092 46.17 16.707 46.3019 16.6907 46.7139C16.6581 47.5056 16.4137 48.9558 14.5398 48.9558C12.4534 48.9558 12.2246 46.3843 12.2246 44.9334C12.2246 43.203 12.5022 40.9282 14.5398 40.9282C15.6315 40.9282 16.1204 41.4555 16.3648 42.3949C16.4789 42.8233 16.7559 43.0053 17.6691 43.0053C18.5001 43.0053 18.712 42.5432 18.6142 42.0158C18.2387 40.0713 16.8211 38.9994 14.5391 38.9994C11.2143 39.1807 9.99216 41.5709 9.99216 44.9334C9.99216 48.2307 11.2795 50.8845 14.6206 50.8845C17.7988 50.8845 18.9238 48.5603 18.8097 45.7244C18.7771 44.8352 18.4838 44.3079 17.2943 44.3079Z" fill="#B04AFF"/>
<path d="M27.7733 39.1148C27.2355 39.1148 26.6978 39.2802 26.6978 39.8735V46.7633C26.6978 48.0164 25.9965 48.9228 24.7255 48.9228C23.4544 48.9228 22.7694 48.0164 22.7694 46.7633V39.8735C22.7694 39.2802 22.2317 39.1148 21.6932 39.1148C21.1555 39.1148 20.6178 39.2802 20.6178 39.8735V46.5656C20.6178 49.6314 22.3294 50.901 24.7255 50.901C27.1371 50.901 28.8487 49.6314 28.8487 46.5656V39.8735C28.8487 39.2802 28.311 39.1148 27.7733 39.1148Z" fill="#B04AFF"/>
<path d="M32.0425 39.1148C31.5048 39.1148 30.9671 39.2802 30.9671 39.8735V50.0935C30.9671 50.7033 31.5048 50.8681 32.0425 50.8681C32.5803 50.8681 33.1343 50.7033 33.1343 50.0935V39.8735C33.1343 39.2802 32.5803 39.1148 32.0425 39.1148Z" fill="#B04AFF"/>
<path d="M39.0996 39.1807H36.8502C36.0192 39.1807 35.2533 39.3949 35.2533 40.6316V49.2524C35.2533 50.5055 36.0192 50.7198 36.8502 50.7198H39.0996C42.3429 50.7198 43.6139 48.0164 43.6139 44.9506C43.6139 41.884 42.3103 39.1807 39.0996 39.1807ZM39.0996 48.725H37.6812C37.502 48.725 37.4042 48.6591 37.4042 48.4449V41.4391C37.4042 41.2248 37.502 41.1589 37.6812 41.1589H39.0996C40.8757 41.1589 41.3978 43.3349 41.3978 44.9506C41.3978 46.5655 40.9246 48.725 39.0996 48.725Z" fill="#B04AFF"/>
<path d="M47.6883 41.1589H51.3228C51.8775 41.1589 52.0078 40.6645 52.0078 40.1701C52.0078 39.6757 51.8612 39.1814 51.3228 39.1814H46.841C46.0256 39.1814 45.2434 39.3956 45.2434 40.6316V49.2689C45.2434 50.5055 46.0256 50.7198 46.841 50.7198H51.3228C51.8605 50.7198 52.0078 50.2254 52.0078 49.731C52.0078 49.2366 51.8775 48.7415 51.3228 48.7415H47.6883C47.4928 48.7415 47.4113 48.6756 47.4113 48.4614V45.7416H50.7199C51.2576 45.7416 51.4043 45.2472 51.4043 44.7528C51.4043 44.2584 51.2576 43.764 50.7199 43.764H47.4113V41.4397C47.4113 41.2248 47.4928 41.1589 47.6883 41.1589Z" fill="#B04AFF"/>
</svg>
