<svg width="27" height="29" viewBox="0 0 27 29" fill="none" xmlns="http://www.w3.org/2000/svg">
<path d="M24.7433 17.8735L22.5985 15.7286L12.9472 6.07772C11.1684 4.31232 8.2972 4.31765 6.52514 6.08971C4.75307 7.86178 4.74774 10.733 6.51315 12.5117L16.1641 22.1655C16.5588 22.5605 17.1991 22.5605 17.594 22.1655C17.9887 21.7706 17.9887 21.1305 17.594 20.7356L7.9431 11.0818C6.95606 10.0947 6.95606 8.49473 7.9431 7.50768C8.93015 6.52063 10.5302 6.52063 11.5172 7.50768L21.171 17.1586L23.3158 19.3032C25.0928 21.0808 25.0921 23.9622 23.3147 25.739C21.5371 27.5157 18.6559 27.5153 16.8789 25.7376L15.092 23.95L5.08342 13.9415L4.36833 13.2266C1.86896 10.6491 1.90071 6.54283 4.43937 4.00395C6.97826 1.46529 11.0845 1.43354 13.662 3.93291L24.3855 14.6566C24.641 14.9119 25.0133 15.0115 25.3621 14.9181C25.7111 14.8246 25.9837 14.5522 26.0772 14.2032C26.1706 13.8542 26.0707 13.4821 25.8154 13.2266L15.092 2.50317C11.7337 -0.839823 6.30313 -0.833607 2.95258 2.51716C-0.398182 5.8677 -0.404398 11.2982 2.9386 14.6566L13.662 25.38L15.4516 27.1676C18.0325 29.6465 22.1225 29.6052 24.6525 27.0744C27.1828 24.5437 27.2229 20.4536 24.7433 17.8735Z" fill="black"/>
</svg>
